M48
; DRILL file {KiCad 9.0.8} date 2026-03-22T14:42:31-0700
; FORMAT={-:-/ absolute / metric / decimal}
; #@! TF.CreationDate,2026-03-22T14:42:31-07:00
; #@! TF.GenerationSoftware,Kicad,Pcbnew,9.0.8
; #@! TF.FileFunction,Plated,1,2,PTH
FMAT,2
METRIC
; #@! TA.AperFunction,Plated,PTH,ComponentDrill
T1C0.800
%
G90
G05
T1
X78.38Y-82.0
X78.38Y-84.54
X78.38Y-87.08
X78.38Y-89.62
X78.38Y-92.16
X78.38Y-94.7
X78.38Y-97.24
X78.38Y-99.78
X78.38Y-102.32
X86.0Y-82.0
X86.0Y-84.54
X86.0Y-87.08
X86.0Y-89.62
X86.0Y-92.16
X86.0Y-94.7
X86.0Y-97.24
X86.0Y-99.78
X86.0Y-102.32
X93.19Y-96.0
X93.19Y-100.0
X93.19Y-104.0
X93.38Y-74.0
X93.38Y-78.0
X93.38Y-82.0
X93.38Y-86.0
X93.38Y-91.0
X93.38Y-109.0
X93.38Y-114.0
X100.81Y-96.0
X100.81Y-100.0
X100.81Y-104.0
X101.0Y-74.0
X101.0Y-78.0
X101.0Y-82.0
X101.0Y-86.0
X101.0Y-91.0
X101.0Y-109.0
X101.0Y-114.0
X111.38Y-81.0
X111.38Y-83.54
X111.38Y-86.08
X111.38Y-88.62
X111.38Y-91.16
X111.38Y-93.7
X111.38Y-96.24
X111.38Y-98.78
X111.38Y-101.32
X119.0Y-81.0
X119.0Y-83.54
X119.0Y-86.08
X119.0Y-88.62
X119.0Y-91.16
X119.0Y-93.7
X119.0Y-96.24
X119.0Y-98.78
X119.0Y-101.32
X125.0Y-100.0
X125.0Y-105.0
X125.19Y-95.0
X125.38Y-70.0
X125.38Y-84.833
X125.38Y-110.0
X125.57Y-90.0
X125.76Y-75.0
X125.76Y-80.0
X132.0Y-123.0
X132.62Y-100.0
X132.62Y-105.0
X132.81Y-95.0
X133.0Y-70.0
X133.0Y-84.833
X133.0Y-110.0
X133.19Y-90.0
X133.38Y-75.0
X133.38Y-80.0
X139.62Y-123.0
X140.38Y-80.0
X140.38Y-82.54
X140.38Y-85.08
X140.38Y-87.62
X140.38Y-90.16
X140.38Y-92.7
X140.38Y-95.24
X140.38Y-97.78
X140.38Y-100.32
X148.0Y-80.0
X148.0Y-82.54
X148.0Y-85.08
X148.0Y-87.62
X148.0Y-90.16
X148.0Y-92.7
X148.0Y-95.24
X148.0Y-97.78
X148.0Y-100.32
X154.0Y-100.0
X154.0Y-105.0
X154.0Y-110.0
X154.19Y-80.0
X154.19Y-95.0
X154.38Y-70.0
X154.38Y-85.0
X154.38Y-90.0
X154.57Y-75.0
X161.62Y-100.0
X161.62Y-105.0
X161.62Y-110.0
X161.81Y-80.0
X161.81Y-95.0
X162.0Y-70.0
X162.0Y-85.0
X162.0Y-90.0
X162.19Y-75.0
X172.38Y-75.0
X172.38Y-77.54
X172.38Y-80.08
X172.38Y-82.62
X172.38Y-85.16
X172.38Y-87.7
X172.38Y-90.24
X172.38Y-92.78
X172.38Y-95.32
X180.0Y-75.0
X180.0Y-77.54
X180.0Y-80.08
X180.0Y-82.62
X180.0Y-85.16
X180.0Y-87.7
X180.0Y-90.24
X180.0Y-92.78
X180.0Y-95.32
X186.19Y-107.0
X186.38Y-69.0
X186.38Y-86.0
X186.38Y-91.0
X186.38Y-97.0
X186.38Y-102.0
X187.19Y-75.0
X187.19Y-80.0
X193.81Y-107.0
X194.0Y-69.0
X194.0Y-86.0
X194.0Y-91.0
X194.0Y-97.0
X194.0Y-102.0
X194.81Y-75.0
X194.81Y-80.0
M30
