%TF.GenerationSoftware,KiCad,Pcbnew,9.0.8*%
%TF.CreationDate,2026-03-22T14:41:56-07:00*%
%TF.ProjectId,Decada,44656361-6461-42e6-9b69-6361645f7063,rev?*%
%TF.SameCoordinates,Original*%
%TF.FileFunction,Copper,L1,Top*%
%TF.FilePolarity,Positive*%
%FSLAX46Y46*%
G04 Gerber Fmt 4.6, Leading zero omitted, Abs format (unit mm)*
G04 Created by KiCad (PCBNEW 9.0.8) date 2026-03-22 14:41:56*
%MOMM*%
%LPD*%
G01*
G04 APERTURE LIST*
G04 Aperture macros list*
%AMRoundRect*
0 Rectangle with rounded corners*
0 $1 Rounding radius*
0 $2 $3 $4 $5 $6 $7 $8 $9 X,Y pos of 4 corners*
0 Add a 4 corners polygon primitive as box body*
4,1,4,$2,$3,$4,$5,$6,$7,$8,$9,$2,$3,0*
0 Add four circle primitives for the rounded corners*
1,1,$1+$1,$2,$3*
1,1,$1+$1,$4,$5*
1,1,$1+$1,$6,$7*
1,1,$1+$1,$8,$9*
0 Add four rect primitives between the rounded corners*
20,1,$1+$1,$2,$3,$4,$5,0*
20,1,$1+$1,$4,$5,$6,$7,0*
20,1,$1+$1,$6,$7,$8,$9,0*
20,1,$1+$1,$8,$9,$2,$3,0*%
G04 Aperture macros list end*
%ADD10C,0.300000*%
%TA.AperFunction,NonConductor*%
%ADD11C,0.300000*%
%TD*%
%TA.AperFunction,ComponentPad*%
%ADD12C,1.600000*%
%TD*%
%TA.AperFunction,ComponentPad*%
%ADD13RoundRect,0.250000X0.550000X0.550000X-0.550000X0.550000X-0.550000X-0.550000X0.550000X-0.550000X0*%
%TD*%
%TA.AperFunction,Conductor*%
%ADD14C,0.600000*%
%TD*%
G04 APERTURE END LIST*
D10*
D11*
X80554510Y-120300828D02*
X80554510Y-118800828D01*
X80554510Y-118800828D02*
X80911653Y-118800828D01*
X80911653Y-118800828D02*
X81125939Y-118872257D01*
X81125939Y-118872257D02*
X81268796Y-119015114D01*
X81268796Y-119015114D02*
X81340225Y-119157971D01*
X81340225Y-119157971D02*
X81411653Y-119443685D01*
X81411653Y-119443685D02*
X81411653Y-119657971D01*
X81411653Y-119657971D02*
X81340225Y-119943685D01*
X81340225Y-119943685D02*
X81268796Y-120086542D01*
X81268796Y-120086542D02*
X81125939Y-120229400D01*
X81125939Y-120229400D02*
X80911653Y-120300828D01*
X80911653Y-120300828D02*
X80554510Y-120300828D01*
X82054510Y-120300828D02*
X82054510Y-119300828D01*
X82054510Y-118800828D02*
X81983082Y-118872257D01*
X81983082Y-118872257D02*
X82054510Y-118943685D01*
X82054510Y-118943685D02*
X82125939Y-118872257D01*
X82125939Y-118872257D02*
X82054510Y-118800828D01*
X82054510Y-118800828D02*
X82054510Y-118943685D01*
X83340225Y-120229400D02*
X83197368Y-120300828D01*
X83197368Y-120300828D02*
X82911654Y-120300828D01*
X82911654Y-120300828D02*
X82768796Y-120229400D01*
X82768796Y-120229400D02*
X82697368Y-120086542D01*
X82697368Y-120086542D02*
X82697368Y-119515114D01*
X82697368Y-119515114D02*
X82768796Y-119372257D01*
X82768796Y-119372257D02*
X82911654Y-119300828D01*
X82911654Y-119300828D02*
X83197368Y-119300828D01*
X83197368Y-119300828D02*
X83340225Y-119372257D01*
X83340225Y-119372257D02*
X83411654Y-119515114D01*
X83411654Y-119515114D02*
X83411654Y-119657971D01*
X83411654Y-119657971D02*
X82697368Y-119800828D01*
X84697368Y-119300828D02*
X84697368Y-120515114D01*
X84697368Y-120515114D02*
X84625939Y-120657971D01*
X84625939Y-120657971D02*
X84554510Y-120729400D01*
X84554510Y-120729400D02*
X84411653Y-120800828D01*
X84411653Y-120800828D02*
X84197368Y-120800828D01*
X84197368Y-120800828D02*
X84054510Y-120729400D01*
X84697368Y-120229400D02*
X84554510Y-120300828D01*
X84554510Y-120300828D02*
X84268796Y-120300828D01*
X84268796Y-120300828D02*
X84125939Y-120229400D01*
X84125939Y-120229400D02*
X84054510Y-120157971D01*
X84054510Y-120157971D02*
X83983082Y-120015114D01*
X83983082Y-120015114D02*
X83983082Y-119586542D01*
X83983082Y-119586542D02*
X84054510Y-119443685D01*
X84054510Y-119443685D02*
X84125939Y-119372257D01*
X84125939Y-119372257D02*
X84268796Y-119300828D01*
X84268796Y-119300828D02*
X84554510Y-119300828D01*
X84554510Y-119300828D02*
X84697368Y-119372257D01*
X85625939Y-120300828D02*
X85483082Y-120229400D01*
X85483082Y-120229400D02*
X85411653Y-120157971D01*
X85411653Y-120157971D02*
X85340225Y-120015114D01*
X85340225Y-120015114D02*
X85340225Y-119586542D01*
X85340225Y-119586542D02*
X85411653Y-119443685D01*
X85411653Y-119443685D02*
X85483082Y-119372257D01*
X85483082Y-119372257D02*
X85625939Y-119300828D01*
X85625939Y-119300828D02*
X85840225Y-119300828D01*
X85840225Y-119300828D02*
X85983082Y-119372257D01*
X85983082Y-119372257D02*
X86054511Y-119443685D01*
X86054511Y-119443685D02*
X86125939Y-119586542D01*
X86125939Y-119586542D02*
X86125939Y-120015114D01*
X86125939Y-120015114D02*
X86054511Y-120157971D01*
X86054511Y-120157971D02*
X85983082Y-120229400D01*
X85983082Y-120229400D02*
X85840225Y-120300828D01*
X85840225Y-120300828D02*
X85625939Y-120300828D01*
X87911653Y-120300828D02*
X87911653Y-118800828D01*
X87911653Y-118800828D02*
X88483082Y-118800828D01*
X88483082Y-118800828D02*
X88625939Y-118872257D01*
X88625939Y-118872257D02*
X88697368Y-118943685D01*
X88697368Y-118943685D02*
X88768796Y-119086542D01*
X88768796Y-119086542D02*
X88768796Y-119300828D01*
X88768796Y-119300828D02*
X88697368Y-119443685D01*
X88697368Y-119443685D02*
X88625939Y-119515114D01*
X88625939Y-119515114D02*
X88483082Y-119586542D01*
X88483082Y-119586542D02*
X87911653Y-119586542D01*
X89625939Y-120300828D02*
X89483082Y-120229400D01*
X89483082Y-120229400D02*
X89411653Y-120157971D01*
X89411653Y-120157971D02*
X89340225Y-120015114D01*
X89340225Y-120015114D02*
X89340225Y-119586542D01*
X89340225Y-119586542D02*
X89411653Y-119443685D01*
X89411653Y-119443685D02*
X89483082Y-119372257D01*
X89483082Y-119372257D02*
X89625939Y-119300828D01*
X89625939Y-119300828D02*
X89840225Y-119300828D01*
X89840225Y-119300828D02*
X89983082Y-119372257D01*
X89983082Y-119372257D02*
X90054511Y-119443685D01*
X90054511Y-119443685D02*
X90125939Y-119586542D01*
X90125939Y-119586542D02*
X90125939Y-120015114D01*
X90125939Y-120015114D02*
X90054511Y-120157971D01*
X90054511Y-120157971D02*
X89983082Y-120229400D01*
X89983082Y-120229400D02*
X89840225Y-120300828D01*
X89840225Y-120300828D02*
X89625939Y-120300828D01*
X90768796Y-120300828D02*
X90768796Y-119300828D01*
X90768796Y-119586542D02*
X90840225Y-119443685D01*
X90840225Y-119443685D02*
X90911654Y-119372257D01*
X90911654Y-119372257D02*
X91054511Y-119300828D01*
X91054511Y-119300828D02*
X91197368Y-119300828D01*
X91697367Y-120300828D02*
X91697367Y-119300828D01*
X91697367Y-119586542D02*
X91768796Y-119443685D01*
X91768796Y-119443685D02*
X91840225Y-119372257D01*
X91840225Y-119372257D02*
X91983082Y-119300828D01*
X91983082Y-119300828D02*
X92125939Y-119300828D01*
X93268796Y-120300828D02*
X93268796Y-119515114D01*
X93268796Y-119515114D02*
X93197367Y-119372257D01*
X93197367Y-119372257D02*
X93054510Y-119300828D01*
X93054510Y-119300828D02*
X92768796Y-119300828D01*
X92768796Y-119300828D02*
X92625938Y-119372257D01*
X93268796Y-120229400D02*
X93125938Y-120300828D01*
X93125938Y-120300828D02*
X92768796Y-120300828D01*
X92768796Y-120300828D02*
X92625938Y-120229400D01*
X92625938Y-120229400D02*
X92554510Y-120086542D01*
X92554510Y-120086542D02*
X92554510Y-119943685D01*
X92554510Y-119943685D02*
X92625938Y-119800828D01*
X92625938Y-119800828D02*
X92768796Y-119729400D01*
X92768796Y-119729400D02*
X93125938Y-119729400D01*
X93125938Y-119729400D02*
X93268796Y-119657971D01*
X93911653Y-120229400D02*
X94054510Y-120300828D01*
X94054510Y-120300828D02*
X94340224Y-120300828D01*
X94340224Y-120300828D02*
X94483081Y-120229400D01*
X94483081Y-120229400D02*
X94554510Y-120086542D01*
X94554510Y-120086542D02*
X94554510Y-120015114D01*
X94554510Y-120015114D02*
X94483081Y-119872257D01*
X94483081Y-119872257D02*
X94340224Y-119800828D01*
X94340224Y-119800828D02*
X94125939Y-119800828D01*
X94125939Y-119800828D02*
X93983081Y-119729400D01*
X93983081Y-119729400D02*
X93911653Y-119586542D01*
X93911653Y-119586542D02*
X93911653Y-119515114D01*
X93911653Y-119515114D02*
X93983081Y-119372257D01*
X93983081Y-119372257D02*
X94125939Y-119300828D01*
X94125939Y-119300828D02*
X94340224Y-119300828D01*
X94340224Y-119300828D02*
X94483081Y-119372257D01*
X97125939Y-120300828D02*
X96268796Y-120300828D01*
X96697367Y-120300828D02*
X96697367Y-118800828D01*
X96697367Y-118800828D02*
X96554510Y-119015114D01*
X96554510Y-119015114D02*
X96411653Y-119157971D01*
X96411653Y-119157971D02*
X96268796Y-119229400D01*
X98411653Y-118800828D02*
X98125938Y-118800828D01*
X98125938Y-118800828D02*
X97983081Y-118872257D01*
X97983081Y-118872257D02*
X97911653Y-118943685D01*
X97911653Y-118943685D02*
X97768795Y-119157971D01*
X97768795Y-119157971D02*
X97697367Y-119443685D01*
X97697367Y-119443685D02*
X97697367Y-120015114D01*
X97697367Y-120015114D02*
X97768795Y-120157971D01*
X97768795Y-120157971D02*
X97840224Y-120229400D01*
X97840224Y-120229400D02*
X97983081Y-120300828D01*
X97983081Y-120300828D02*
X98268795Y-120300828D01*
X98268795Y-120300828D02*
X98411653Y-120229400D01*
X98411653Y-120229400D02*
X98483081Y-120157971D01*
X98483081Y-120157971D02*
X98554510Y-120015114D01*
X98554510Y-120015114D02*
X98554510Y-119657971D01*
X98554510Y-119657971D02*
X98483081Y-119515114D01*
X98483081Y-119515114D02*
X98411653Y-119443685D01*
X98411653Y-119443685D02*
X98268795Y-119372257D01*
X98268795Y-119372257D02*
X97983081Y-119372257D01*
X97983081Y-119372257D02*
X97840224Y-119443685D01*
X97840224Y-119443685D02*
X97768795Y-119515114D01*
X97768795Y-119515114D02*
X97697367Y-119657971D01*
X99483081Y-118800828D02*
X99625938Y-118800828D01*
X99625938Y-118800828D02*
X99768795Y-118872257D01*
X99768795Y-118872257D02*
X99840224Y-118943685D01*
X99840224Y-118943685D02*
X99911652Y-119086542D01*
X99911652Y-119086542D02*
X99983081Y-119372257D01*
X99983081Y-119372257D02*
X99983081Y-119729400D01*
X99983081Y-119729400D02*
X99911652Y-120015114D01*
X99911652Y-120015114D02*
X99840224Y-120157971D01*
X99840224Y-120157971D02*
X99768795Y-120229400D01*
X99768795Y-120229400D02*
X99625938Y-120300828D01*
X99625938Y-120300828D02*
X99483081Y-120300828D01*
X99483081Y-120300828D02*
X99340224Y-120229400D01*
X99340224Y-120229400D02*
X99268795Y-120157971D01*
X99268795Y-120157971D02*
X99197366Y-120015114D01*
X99197366Y-120015114D02*
X99125938Y-119729400D01*
X99125938Y-119729400D02*
X99125938Y-119372257D01*
X99125938Y-119372257D02*
X99197366Y-119086542D01*
X99197366Y-119086542D02*
X99268795Y-118943685D01*
X99268795Y-118943685D02*
X99340224Y-118872257D01*
X99340224Y-118872257D02*
X99483081Y-118800828D01*
X100911652Y-118800828D02*
X101054509Y-118800828D01*
X101054509Y-118800828D02*
X101197366Y-118872257D01*
X101197366Y-118872257D02*
X101268795Y-118943685D01*
X101268795Y-118943685D02*
X101340223Y-119086542D01*
X101340223Y-119086542D02*
X101411652Y-119372257D01*
X101411652Y-119372257D02*
X101411652Y-119729400D01*
X101411652Y-119729400D02*
X101340223Y-120015114D01*
X101340223Y-120015114D02*
X101268795Y-120157971D01*
X101268795Y-120157971D02*
X101197366Y-120229400D01*
X101197366Y-120229400D02*
X101054509Y-120300828D01*
X101054509Y-120300828D02*
X100911652Y-120300828D01*
X100911652Y-120300828D02*
X100768795Y-120229400D01*
X100768795Y-120229400D02*
X100697366Y-120157971D01*
X100697366Y-120157971D02*
X100625937Y-120015114D01*
X100625937Y-120015114D02*
X100554509Y-119729400D01*
X100554509Y-119729400D02*
X100554509Y-119372257D01*
X100554509Y-119372257D02*
X100625937Y-119086542D01*
X100625937Y-119086542D02*
X100697366Y-118943685D01*
X100697366Y-118943685D02*
X100768795Y-118872257D01*
X100768795Y-118872257D02*
X100911652Y-118800828D01*
X102840223Y-120300828D02*
X101983080Y-120300828D01*
X102411651Y-120300828D02*
X102411651Y-118800828D01*
X102411651Y-118800828D02*
X102268794Y-119015114D01*
X102268794Y-119015114D02*
X102125937Y-119157971D01*
X102125937Y-119157971D02*
X101983080Y-119229400D01*
X103340222Y-118800828D02*
X104340222Y-118800828D01*
X104340222Y-118800828D02*
X103697365Y-120300828D01*
X105554508Y-119300828D02*
X105554508Y-120300828D01*
X105197365Y-118729400D02*
X104840222Y-119800828D01*
X104840222Y-119800828D02*
X105768793Y-119800828D01*
X106268793Y-118943685D02*
X106340221Y-118872257D01*
X106340221Y-118872257D02*
X106483079Y-118800828D01*
X106483079Y-118800828D02*
X106840221Y-118800828D01*
X106840221Y-118800828D02*
X106983079Y-118872257D01*
X106983079Y-118872257D02*
X107054507Y-118943685D01*
X107054507Y-118943685D02*
X107125936Y-119086542D01*
X107125936Y-119086542D02*
X107125936Y-119229400D01*
X107125936Y-119229400D02*
X107054507Y-119443685D01*
X107054507Y-119443685D02*
X106197364Y-120300828D01*
X106197364Y-120300828D02*
X107125936Y-120300828D01*
D10*
D11*
X80554510Y-123515114D02*
X81054510Y-123515114D01*
X81268796Y-124300828D02*
X80554510Y-124300828D01*
X80554510Y-124300828D02*
X80554510Y-122800828D01*
X80554510Y-122800828D02*
X81268796Y-122800828D01*
X82125939Y-124300828D02*
X81983082Y-124229400D01*
X81983082Y-124229400D02*
X81911653Y-124086542D01*
X81911653Y-124086542D02*
X81911653Y-122800828D01*
X83268796Y-124229400D02*
X83125939Y-124300828D01*
X83125939Y-124300828D02*
X82840225Y-124300828D01*
X82840225Y-124300828D02*
X82697367Y-124229400D01*
X82697367Y-124229400D02*
X82625939Y-124086542D01*
X82625939Y-124086542D02*
X82625939Y-123515114D01*
X82625939Y-123515114D02*
X82697367Y-123372257D01*
X82697367Y-123372257D02*
X82840225Y-123300828D01*
X82840225Y-123300828D02*
X83125939Y-123300828D01*
X83125939Y-123300828D02*
X83268796Y-123372257D01*
X83268796Y-123372257D02*
X83340225Y-123515114D01*
X83340225Y-123515114D02*
X83340225Y-123657971D01*
X83340225Y-123657971D02*
X82625939Y-123800828D01*
X84625939Y-124229400D02*
X84483081Y-124300828D01*
X84483081Y-124300828D02*
X84197367Y-124300828D01*
X84197367Y-124300828D02*
X84054510Y-124229400D01*
X84054510Y-124229400D02*
X83983081Y-124157971D01*
X83983081Y-124157971D02*
X83911653Y-124015114D01*
X83911653Y-124015114D02*
X83911653Y-123586542D01*
X83911653Y-123586542D02*
X83983081Y-123443685D01*
X83983081Y-123443685D02*
X84054510Y-123372257D01*
X84054510Y-123372257D02*
X84197367Y-123300828D01*
X84197367Y-123300828D02*
X84483081Y-123300828D01*
X84483081Y-123300828D02*
X84625939Y-123372257D01*
X85054510Y-123300828D02*
X85625938Y-123300828D01*
X85268795Y-122800828D02*
X85268795Y-124086542D01*
X85268795Y-124086542D02*
X85340224Y-124229400D01*
X85340224Y-124229400D02*
X85483081Y-124300828D01*
X85483081Y-124300828D02*
X85625938Y-124300828D01*
X86125938Y-124300828D02*
X86125938Y-123300828D01*
X86125938Y-123586542D02*
X86197367Y-123443685D01*
X86197367Y-123443685D02*
X86268796Y-123372257D01*
X86268796Y-123372257D02*
X86411653Y-123300828D01*
X86411653Y-123300828D02*
X86554510Y-123300828D01*
X87054509Y-124300828D02*
X87054509Y-123300828D01*
X87054509Y-122800828D02*
X86983081Y-122872257D01*
X86983081Y-122872257D02*
X87054509Y-122943685D01*
X87054509Y-122943685D02*
X87125938Y-122872257D01*
X87125938Y-122872257D02*
X87054509Y-122800828D01*
X87054509Y-122800828D02*
X87054509Y-122943685D01*
X88411653Y-124229400D02*
X88268795Y-124300828D01*
X88268795Y-124300828D02*
X87983081Y-124300828D01*
X87983081Y-124300828D02*
X87840224Y-124229400D01*
X87840224Y-124229400D02*
X87768795Y-124157971D01*
X87768795Y-124157971D02*
X87697367Y-124015114D01*
X87697367Y-124015114D02*
X87697367Y-123586542D01*
X87697367Y-123586542D02*
X87768795Y-123443685D01*
X87768795Y-123443685D02*
X87840224Y-123372257D01*
X87840224Y-123372257D02*
X87983081Y-123300828D01*
X87983081Y-123300828D02*
X88268795Y-123300828D01*
X88268795Y-123300828D02*
X88411653Y-123372257D01*
X89054509Y-124300828D02*
X89054509Y-123300828D01*
X89054509Y-122800828D02*
X88983081Y-122872257D01*
X88983081Y-122872257D02*
X89054509Y-122943685D01*
X89054509Y-122943685D02*
X89125938Y-122872257D01*
X89125938Y-122872257D02*
X89054509Y-122800828D01*
X89054509Y-122800828D02*
X89054509Y-122943685D01*
X90411653Y-124300828D02*
X90411653Y-122800828D01*
X90411653Y-124229400D02*
X90268795Y-124300828D01*
X90268795Y-124300828D02*
X89983081Y-124300828D01*
X89983081Y-124300828D02*
X89840224Y-124229400D01*
X89840224Y-124229400D02*
X89768795Y-124157971D01*
X89768795Y-124157971D02*
X89697367Y-124015114D01*
X89697367Y-124015114D02*
X89697367Y-123586542D01*
X89697367Y-123586542D02*
X89768795Y-123443685D01*
X89768795Y-123443685D02*
X89840224Y-123372257D01*
X89840224Y-123372257D02*
X89983081Y-123300828D01*
X89983081Y-123300828D02*
X90268795Y-123300828D01*
X90268795Y-123300828D02*
X90411653Y-123372257D01*
X91768796Y-124300828D02*
X91768796Y-123515114D01*
X91768796Y-123515114D02*
X91697367Y-123372257D01*
X91697367Y-123372257D02*
X91554510Y-123300828D01*
X91554510Y-123300828D02*
X91268796Y-123300828D01*
X91268796Y-123300828D02*
X91125938Y-123372257D01*
X91768796Y-124229400D02*
X91625938Y-124300828D01*
X91625938Y-124300828D02*
X91268796Y-124300828D01*
X91268796Y-124300828D02*
X91125938Y-124229400D01*
X91125938Y-124229400D02*
X91054510Y-124086542D01*
X91054510Y-124086542D02*
X91054510Y-123943685D01*
X91054510Y-123943685D02*
X91125938Y-123800828D01*
X91125938Y-123800828D02*
X91268796Y-123729400D01*
X91268796Y-123729400D02*
X91625938Y-123729400D01*
X91625938Y-123729400D02*
X91768796Y-123657971D01*
X93125939Y-124300828D02*
X93125939Y-122800828D01*
X93125939Y-124229400D02*
X92983081Y-124300828D01*
X92983081Y-124300828D02*
X92697367Y-124300828D01*
X92697367Y-124300828D02*
X92554510Y-124229400D01*
X92554510Y-124229400D02*
X92483081Y-124157971D01*
X92483081Y-124157971D02*
X92411653Y-124015114D01*
X92411653Y-124015114D02*
X92411653Y-123586542D01*
X92411653Y-123586542D02*
X92483081Y-123443685D01*
X92483081Y-123443685D02*
X92554510Y-123372257D01*
X92554510Y-123372257D02*
X92697367Y-123300828D01*
X92697367Y-123300828D02*
X92983081Y-123300828D01*
X92983081Y-123300828D02*
X93125939Y-123372257D01*
X95768796Y-124300828D02*
X94911653Y-124300828D01*
X95340224Y-124300828D02*
X95340224Y-122800828D01*
X95340224Y-122800828D02*
X95197367Y-123015114D01*
X95197367Y-123015114D02*
X95054510Y-123157971D01*
X95054510Y-123157971D02*
X94911653Y-123229400D01*
X97483081Y-122943685D02*
X97554509Y-122872257D01*
X97554509Y-122872257D02*
X97697367Y-122800828D01*
X97697367Y-122800828D02*
X98054509Y-122800828D01*
X98054509Y-122800828D02*
X98197367Y-122872257D01*
X98197367Y-122872257D02*
X98268795Y-122943685D01*
X98268795Y-122943685D02*
X98340224Y-123086542D01*
X98340224Y-123086542D02*
X98340224Y-123229400D01*
X98340224Y-123229400D02*
X98268795Y-123443685D01*
X98268795Y-123443685D02*
X97411652Y-124300828D01*
X97411652Y-124300828D02*
X98340224Y-124300828D01*
X99268795Y-122800828D02*
X99411652Y-122800828D01*
X99411652Y-122800828D02*
X99554509Y-122872257D01*
X99554509Y-122872257D02*
X99625938Y-122943685D01*
X99625938Y-122943685D02*
X99697366Y-123086542D01*
X99697366Y-123086542D02*
X99768795Y-123372257D01*
X99768795Y-123372257D02*
X99768795Y-123729400D01*
X99768795Y-123729400D02*
X99697366Y-124015114D01*
X99697366Y-124015114D02*
X99625938Y-124157971D01*
X99625938Y-124157971D02*
X99554509Y-124229400D01*
X99554509Y-124229400D02*
X99411652Y-124300828D01*
X99411652Y-124300828D02*
X99268795Y-124300828D01*
X99268795Y-124300828D02*
X99125938Y-124229400D01*
X99125938Y-124229400D02*
X99054509Y-124157971D01*
X99054509Y-124157971D02*
X98983080Y-124015114D01*
X98983080Y-124015114D02*
X98911652Y-123729400D01*
X98911652Y-123729400D02*
X98911652Y-123372257D01*
X98911652Y-123372257D02*
X98983080Y-123086542D01*
X98983080Y-123086542D02*
X99054509Y-122943685D01*
X99054509Y-122943685D02*
X99125938Y-122872257D01*
X99125938Y-122872257D02*
X99268795Y-122800828D01*
X100340223Y-122943685D02*
X100411651Y-122872257D01*
X100411651Y-122872257D02*
X100554509Y-122800828D01*
X100554509Y-122800828D02*
X100911651Y-122800828D01*
X100911651Y-122800828D02*
X101054509Y-122872257D01*
X101054509Y-122872257D02*
X101125937Y-122943685D01*
X101125937Y-122943685D02*
X101197366Y-123086542D01*
X101197366Y-123086542D02*
X101197366Y-123229400D01*
X101197366Y-123229400D02*
X101125937Y-123443685D01*
X101125937Y-123443685D02*
X100268794Y-124300828D01*
X100268794Y-124300828D02*
X101197366Y-124300828D01*
X102483080Y-122800828D02*
X102197365Y-122800828D01*
X102197365Y-122800828D02*
X102054508Y-122872257D01*
X102054508Y-122872257D02*
X101983080Y-122943685D01*
X101983080Y-122943685D02*
X101840222Y-123157971D01*
X101840222Y-123157971D02*
X101768794Y-123443685D01*
X101768794Y-123443685D02*
X101768794Y-124015114D01*
X101768794Y-124015114D02*
X101840222Y-124157971D01*
X101840222Y-124157971D02*
X101911651Y-124229400D01*
X101911651Y-124229400D02*
X102054508Y-124300828D01*
X102054508Y-124300828D02*
X102340222Y-124300828D01*
X102340222Y-124300828D02*
X102483080Y-124229400D01*
X102483080Y-124229400D02*
X102554508Y-124157971D01*
X102554508Y-124157971D02*
X102625937Y-124015114D01*
X102625937Y-124015114D02*
X102625937Y-123657971D01*
X102625937Y-123657971D02*
X102554508Y-123515114D01*
X102554508Y-123515114D02*
X102483080Y-123443685D01*
X102483080Y-123443685D02*
X102340222Y-123372257D01*
X102340222Y-123372257D02*
X102054508Y-123372257D01*
X102054508Y-123372257D02*
X101911651Y-123443685D01*
X101911651Y-123443685D02*
X101840222Y-123515114D01*
X101840222Y-123515114D02*
X101768794Y-123657971D01*
D10*
D11*
X105483082Y-124229400D02*
X105697368Y-124300828D01*
X105697368Y-124300828D02*
X106054510Y-124300828D01*
X106054510Y-124300828D02*
X106197368Y-124229400D01*
X106197368Y-124229400D02*
X106268796Y-124157971D01*
X106268796Y-124157971D02*
X106340225Y-124015114D01*
X106340225Y-124015114D02*
X106340225Y-123872257D01*
X106340225Y-123872257D02*
X106268796Y-123729400D01*
X106268796Y-123729400D02*
X106197368Y-123657971D01*
X106197368Y-123657971D02*
X106054510Y-123586542D01*
X106054510Y-123586542D02*
X105768796Y-123515114D01*
X105768796Y-123515114D02*
X105625939Y-123443685D01*
X105625939Y-123443685D02*
X105554510Y-123372257D01*
X105554510Y-123372257D02*
X105483082Y-123229400D01*
X105483082Y-123229400D02*
X105483082Y-123086542D01*
X105483082Y-123086542D02*
X105554510Y-122943685D01*
X105554510Y-122943685D02*
X105625939Y-122872257D01*
X105625939Y-122872257D02*
X105768796Y-122800828D01*
X105768796Y-122800828D02*
X106125939Y-122800828D01*
X106125939Y-122800828D02*
X106340225Y-122872257D01*
X107554510Y-124229400D02*
X107411653Y-124300828D01*
X107411653Y-124300828D02*
X107125939Y-124300828D01*
X107125939Y-124300828D02*
X106983081Y-124229400D01*
X106983081Y-124229400D02*
X106911653Y-124086542D01*
X106911653Y-124086542D02*
X106911653Y-123515114D01*
X106911653Y-123515114D02*
X106983081Y-123372257D01*
X106983081Y-123372257D02*
X107125939Y-123300828D01*
X107125939Y-123300828D02*
X107411653Y-123300828D01*
X107411653Y-123300828D02*
X107554510Y-123372257D01*
X107554510Y-123372257D02*
X107625939Y-123515114D01*
X107625939Y-123515114D02*
X107625939Y-123657971D01*
X107625939Y-123657971D02*
X106911653Y-123800828D01*
X108911653Y-124229400D02*
X108768795Y-124300828D01*
X108768795Y-124300828D02*
X108483081Y-124300828D01*
X108483081Y-124300828D02*
X108340224Y-124229400D01*
X108340224Y-124229400D02*
X108268795Y-124157971D01*
X108268795Y-124157971D02*
X108197367Y-124015114D01*
X108197367Y-124015114D02*
X108197367Y-123586542D01*
X108197367Y-123586542D02*
X108268795Y-123443685D01*
X108268795Y-123443685D02*
X108340224Y-123372257D01*
X108340224Y-123372257D02*
X108483081Y-123300828D01*
X108483081Y-123300828D02*
X108768795Y-123300828D01*
X108768795Y-123300828D02*
X108911653Y-123372257D01*
X110197367Y-124229400D02*
X110054509Y-124300828D01*
X110054509Y-124300828D02*
X109768795Y-124300828D01*
X109768795Y-124300828D02*
X109625938Y-124229400D01*
X109625938Y-124229400D02*
X109554509Y-124157971D01*
X109554509Y-124157971D02*
X109483081Y-124015114D01*
X109483081Y-124015114D02*
X109483081Y-123586542D01*
X109483081Y-123586542D02*
X109554509Y-123443685D01*
X109554509Y-123443685D02*
X109625938Y-123372257D01*
X109625938Y-123372257D02*
X109768795Y-123300828D01*
X109768795Y-123300828D02*
X110054509Y-123300828D01*
X110054509Y-123300828D02*
X110197367Y-123372257D01*
X110840223Y-124300828D02*
X110840223Y-123300828D01*
X110840223Y-122800828D02*
X110768795Y-122872257D01*
X110768795Y-122872257D02*
X110840223Y-122943685D01*
X110840223Y-122943685D02*
X110911652Y-122872257D01*
X110911652Y-122872257D02*
X110840223Y-122800828D01*
X110840223Y-122800828D02*
X110840223Y-122943685D01*
X111768795Y-124300828D02*
X111625938Y-124229400D01*
X111625938Y-124229400D02*
X111554509Y-124157971D01*
X111554509Y-124157971D02*
X111483081Y-124015114D01*
X111483081Y-124015114D02*
X111483081Y-123586542D01*
X111483081Y-123586542D02*
X111554509Y-123443685D01*
X111554509Y-123443685D02*
X111625938Y-123372257D01*
X111625938Y-123372257D02*
X111768795Y-123300828D01*
X111768795Y-123300828D02*
X111983081Y-123300828D01*
X111983081Y-123300828D02*
X112125938Y-123372257D01*
X112125938Y-123372257D02*
X112197367Y-123443685D01*
X112197367Y-123443685D02*
X112268795Y-123586542D01*
X112268795Y-123586542D02*
X112268795Y-124015114D01*
X112268795Y-124015114D02*
X112197367Y-124157971D01*
X112197367Y-124157971D02*
X112125938Y-124229400D01*
X112125938Y-124229400D02*
X111983081Y-124300828D01*
X111983081Y-124300828D02*
X111768795Y-124300828D01*
X112911652Y-123300828D02*
X112911652Y-124300828D01*
X112911652Y-123443685D02*
X112983081Y-123372257D01*
X112983081Y-123372257D02*
X113125938Y-123300828D01*
X113125938Y-123300828D02*
X113340224Y-123300828D01*
X113340224Y-123300828D02*
X113483081Y-123372257D01*
X113483081Y-123372257D02*
X113554510Y-123515114D01*
X113554510Y-123515114D02*
X113554510Y-124300828D01*
X115340224Y-123872257D02*
X116054510Y-123872257D01*
X115197367Y-124300828D02*
X115697367Y-122800828D01*
X115697367Y-122800828D02*
X116197367Y-124300828D01*
X116697366Y-124300828D02*
X116697366Y-122800828D01*
X116697366Y-122800828D02*
X117554509Y-124300828D01*
X117554509Y-124300828D02*
X117554509Y-122800828D01*
D12*
%TO.P,R1,1*%
%TO.N,Net-(R1-Pad1)*%
X101000000Y-74000000D03*
%TO.P,R1,2*%
%TO.N,Net-(R1-Pad2)*%
X93380000Y-74000000D03*
%TD*%
%TO.P,R4,1*%
%TO.N,Net-(R3-Pad2)*%
X101000000Y-86000000D03*
%TO.P,R4,2*%
%TO.N,Net-(R4-Pad2)*%
X93380000Y-86000000D03*
%TD*%
%TO.P,R6,1*%
%TO.N,Net-(R10-Pad2)*%
X93380000Y-109000000D03*
%TO.P,R6,2*%
%TO.N,Net-(R6-Pad2)*%
X101000000Y-109000000D03*
%TD*%
%TO.P,R28,1*%
%TO.N,Net-(R27-Pad2)*%
X154190000Y-95000000D03*
%TO.P,R28,2*%
%TO.N,Net-(R24-Pad2)*%
X161810000Y-95000000D03*
%TD*%
%TO.P,R36,1*%
%TO.N,Net-(R35-Pad2)*%
X186380000Y-91000000D03*
%TO.P,R36,2*%
%TO.N,Net-(R32-Pad2)*%
X194000000Y-91000000D03*
%TD*%
%TO.P,R25,1*%
%TO.N,Net-(R11-Pad1)*%
X154000000Y-110000000D03*
%TO.P,R25,2*%
%TO.N,Net-(R25-Pad2)*%
X161620000Y-110000000D03*
%TD*%
%TO.P,R23,1*%
%TO.N,Net-(R22-Pad2)*%
X154380000Y-85000000D03*
%TO.P,R23,2*%
%TO.N,Net-(R23-Pad2)*%
X162000000Y-85000000D03*
%TD*%
%TO.P,R29,1*%
%TO.N,Net-(R29-Pad1)*%
X186380000Y-69000000D03*
%TO.P,R29,2*%
%TO.N,Net-(R29-Pad2)*%
X194000000Y-69000000D03*
%TD*%
%TO.P,R31,1*%
%TO.N,Net-(R30-Pad2)*%
X194810000Y-80000000D03*
%TO.P,R31,2*%
%TO.N,Net-(R31-Pad2)*%
X187190000Y-80000000D03*
%TD*%
%TO.P,R17,1*%
%TO.N,Net-(R16-Pad2)*%
X125000000Y-105000000D03*
%TO.P,R17,2*%
%TO.N,Net-(R17-Pad2)*%
X132620000Y-105000000D03*
%TD*%
D13*
%TO.P,SW3,1*%
%TO.N,Net-(R11-Pad1)*%
X148000000Y-100320000D03*
D12*
%TO.P,SW3,2*%
%TO.N,Net-(R25-Pad2)*%
X148000000Y-97780000D03*
%TO.P,SW3,3*%
%TO.N,Net-(R26-Pad2)*%
X148000000Y-95240000D03*
%TO.P,SW3,4*%
%TO.N,Net-(R27-Pad2)*%
X148000000Y-92700000D03*
%TO.P,SW3,5*%
%TO.N,Net-(R24-Pad2)*%
X148000000Y-90160000D03*
%TO.P,SW3,6*%
%TO.N,Net-(R23-Pad2)*%
X148000000Y-87620000D03*
%TO.P,SW3,7*%
%TO.N,Net-(R22-Pad2)*%
X148000000Y-85080000D03*
%TO.P,SW3,8*%
%TO.N,Net-(R21-Pad2)*%
X148000000Y-82540000D03*
%TO.P,SW3,9*%
%TO.N,Net-(R20-Pad2)*%
X148000000Y-80000000D03*
%TO.P,SW3,10*%
%TO.N,Net-(R20-Pad1)*%
X140380000Y-80000000D03*
%TO.P,SW3,11*%
X140380000Y-82540000D03*
%TO.P,SW3,12*%
X140380000Y-85080000D03*
%TO.P,SW3,13*%
X140380000Y-87620000D03*
%TO.P,SW3,14*%
X140380000Y-90160000D03*
%TO.P,SW3,15*%
X140380000Y-92700000D03*
%TO.P,SW3,16*%
X140380000Y-95240000D03*
%TO.P,SW3,17*%
X140380000Y-97780000D03*
%TO.P,SW3,18*%
X140380000Y-100320000D03*
%TD*%
%TO.P,R9,1*%
%TO.N,Net-(R8-Pad2)*%
X93190000Y-96000000D03*
%TO.P,R9,2*%
%TO.N,Net-(R5-Pad2)*%
X100810000Y-96000000D03*
%TD*%
%TO.P,R2,1*%
%TO.N,Net-(R1-Pad2)*%
X101000000Y-78000000D03*
%TO.P,R2,2*%
%TO.N,Net-(R2-Pad2)*%
X93380000Y-78000000D03*
%TD*%
%TO.P,R12,1*%
%TO.N,Net-(R11-Pad2)*%
X125760000Y-75000000D03*
%TO.P,R12,2*%
%TO.N,Net-(R12-Pad2)*%
X133380000Y-75000000D03*
%TD*%
%TO.P,R15,1*%
%TO.N,Net-(R14-Pad2)*%
X125570000Y-90000000D03*
%TO.P,R15,2*%
%TO.N,Net-(R15-Pad2)*%
X133190000Y-90000000D03*
%TD*%
%TO.P,R24,1*%
%TO.N,Net-(R23-Pad2)*%
X154380000Y-90000000D03*
%TO.P,R24,2*%
%TO.N,Net-(R24-Pad2)*%
X162000000Y-90000000D03*
%TD*%
%TO.P,R13,1*%
%TO.N,Net-(R12-Pad2)*%
X125760000Y-80000000D03*
%TO.P,R13,2*%
%TO.N,Net-(R13-Pad2)*%
X133380000Y-80000000D03*
%TD*%
%TO.P,R16,1*%
%TO.N,Net-(R1-Pad1)*%
X125380000Y-110000000D03*
%TO.P,R16,2*%
%TO.N,Net-(R16-Pad2)*%
X133000000Y-110000000D03*
%TD*%
%TO.P,R10,1*%
%TO.N,Net-(R10-Pad1)*%
X101000000Y-114000000D03*
%TO.P,R10,2*%
%TO.N,Net-(R10-Pad2)*%
X93380000Y-114000000D03*
%TD*%
%TO.P,R32,1*%
%TO.N,Net-(R31-Pad2)*%
X194000000Y-86000000D03*
%TO.P,R32,2*%
%TO.N,Net-(R32-Pad2)*%
X186380000Y-86000000D03*
%TD*%
%TO.P,R19,1*%
%TO.N,Net-(R18-Pad2)*%
X125190000Y-95000000D03*
%TO.P,R19,2*%
%TO.N,Net-(R15-Pad2)*%
X132810000Y-95000000D03*
%TD*%
%TO.P,R33,1*%
%TO.N,Net-(R20-Pad1)*%
X186190000Y-107000000D03*
%TO.P,R33,2*%
%TO.N,Net-(R33-Pad2)*%
X193810000Y-107000000D03*
%TD*%
%TO.P,R20,1*%
%TO.N,Net-(R20-Pad1)*%
X154380000Y-70000000D03*
%TO.P,R20,2*%
%TO.N,Net-(R20-Pad2)*%
X162000000Y-70000000D03*
%TD*%
%TO.P,R21,1*%
%TO.N,Net-(R20-Pad2)*%
X154570000Y-75000000D03*
%TO.P,R21,2*%
%TO.N,Net-(R21-Pad2)*%
X162190000Y-75000000D03*
%TD*%
%TO.P,R18,1*%
%TO.N,Net-(R17-Pad2)*%
X125000000Y-100000000D03*
%TO.P,R18,2*%
%TO.N,Net-(R18-Pad2)*%
X132620000Y-100000000D03*
%TD*%
%TO.P,R7,1*%
%TO.N,Net-(R6-Pad2)*%
X93190000Y-104000000D03*
%TO.P,R7,2*%
%TO.N,Net-(R7-Pad2)*%
X100810000Y-104000000D03*
%TD*%
D13*
%TO.P,SW2,1*%
%TO.N,Net-(R1-Pad1)*%
X119000000Y-101320000D03*
D12*
%TO.P,SW2,2*%
%TO.N,Net-(R16-Pad2)*%
X119000000Y-98780000D03*
%TO.P,SW2,3*%
%TO.N,Net-(R17-Pad2)*%
X119000000Y-96240000D03*
%TO.P,SW2,4*%
%TO.N,Net-(R18-Pad2)*%
X119000000Y-93700000D03*
%TO.P,SW2,5*%
%TO.N,Net-(R15-Pad2)*%
X119000000Y-91160000D03*
%TO.P,SW2,6*%
%TO.N,Net-(R14-Pad2)*%
X119000000Y-88620000D03*
%TO.P,SW2,7*%
%TO.N,Net-(R13-Pad2)*%
X119000000Y-86080000D03*
%TO.P,SW2,8*%
%TO.N,Net-(R12-Pad2)*%
X119000000Y-83540000D03*
%TO.P,SW2,9*%
%TO.N,Net-(R11-Pad2)*%
X119000000Y-81000000D03*
%TO.P,SW2,10*%
%TO.N,Net-(R11-Pad1)*%
X111380000Y-81000000D03*
%TO.P,SW2,11*%
X111380000Y-83540000D03*
%TO.P,SW2,12*%
X111380000Y-86080000D03*
%TO.P,SW2,13*%
X111380000Y-88620000D03*
%TO.P,SW2,14*%
X111380000Y-91160000D03*
%TO.P,SW2,15*%
X111380000Y-93700000D03*
%TO.P,SW2,16*%
X111380000Y-96240000D03*
%TO.P,SW2,17*%
X111380000Y-98780000D03*
%TO.P,SW2,18*%
X111380000Y-101320000D03*
%TD*%
%TO.P,SALIDA1,1*%
%TO.N,Net-(R10-Pad1)*%
X132000000Y-123000000D03*
%TO.P,SALIDA1,2*%
%TO.N,Net-(R29-Pad1)*%
X139620000Y-123000000D03*
%TD*%
%TO.P,R14,1*%
%TO.N,Net-(R13-Pad2)*%
X125380000Y-84833333D03*
%TO.P,R14,2*%
%TO.N,Net-(R14-Pad2)*%
X133000000Y-84833333D03*
%TD*%
%TO.P,R3,1*%
%TO.N,Net-(R2-Pad2)*%
X101000000Y-82000000D03*
%TO.P,R3,2*%
%TO.N,Net-(R3-Pad2)*%
X93380000Y-82000000D03*
%TD*%
%TO.P,R5,1*%
%TO.N,Net-(R4-Pad2)*%
X101000000Y-91000000D03*
%TO.P,R5,2*%
%TO.N,Net-(R5-Pad2)*%
X93380000Y-91000000D03*
%TD*%
%TO.P,R27,1*%
%TO.N,Net-(R26-Pad2)*%
X154000000Y-100000000D03*
%TO.P,R27,2*%
%TO.N,Net-(R27-Pad2)*%
X161620000Y-100000000D03*
%TD*%
D13*
%TO.P,SW1,1*%
%TO.N,Net-(R10-Pad2)*%
X86000000Y-102320000D03*
D12*
%TO.P,SW1,2*%
%TO.N,Net-(R6-Pad2)*%
X86000000Y-99780000D03*
%TO.P,SW1,3*%
%TO.N,Net-(R7-Pad2)*%
X86000000Y-97240000D03*
%TO.P,SW1,4*%
%TO.N,Net-(R8-Pad2)*%
X86000000Y-94700000D03*
%TO.P,SW1,5*%
%TO.N,Net-(R5-Pad2)*%
X86000000Y-92160000D03*
%TO.P,SW1,6*%
%TO.N,Net-(R4-Pad2)*%
X86000000Y-89620000D03*
%TO.P,SW1,7*%
%TO.N,Net-(R3-Pad2)*%
X86000000Y-87080000D03*
%TO.P,SW1,8*%
%TO.N,Net-(R2-Pad2)*%
X86000000Y-84540000D03*
%TO.P,SW1,9*%
%TO.N,Net-(R1-Pad2)*%
X86000000Y-82000000D03*
%TO.P,SW1,10*%
%TO.N,Net-(R1-Pad1)*%
X78380000Y-82000000D03*
%TO.P,SW1,11*%
X78380000Y-84540000D03*
%TO.P,SW1,12*%
X78380000Y-87080000D03*
%TO.P,SW1,13*%
X78380000Y-89620000D03*
%TO.P,SW1,14*%
X78380000Y-92160000D03*
%TO.P,SW1,15*%
X78380000Y-94700000D03*
%TO.P,SW1,16*%
X78380000Y-97240000D03*
%TO.P,SW1,17*%
X78380000Y-99780000D03*
%TO.P,SW1,18*%
X78380000Y-102320000D03*
%TD*%
%TO.P,R26,1*%
%TO.N,Net-(R25-Pad2)*%
X154000000Y-105000000D03*
%TO.P,R26,2*%
%TO.N,Net-(R26-Pad2)*%
X161620000Y-105000000D03*
%TD*%
%TO.P,R22,1*%
%TO.N,Net-(R21-Pad2)*%
X154190000Y-80000000D03*
%TO.P,R22,2*%
%TO.N,Net-(R22-Pad2)*%
X161810000Y-80000000D03*
%TD*%
%TO.P,R11,1*%
%TO.N,Net-(R11-Pad1)*%
X125380000Y-70000000D03*
%TO.P,R11,2*%
%TO.N,Net-(R11-Pad2)*%
X133000000Y-70000000D03*
%TD*%
%TO.P,R30,1*%
%TO.N,Net-(R29-Pad2)*%
X187190000Y-75000000D03*
%TO.P,R30,2*%
%TO.N,Net-(R30-Pad2)*%
X194810000Y-75000000D03*
%TD*%
%TO.P,R35,1*%
%TO.N,Net-(R34-Pad2)*%
X186380000Y-97000000D03*
%TO.P,R35,2*%
%TO.N,Net-(R35-Pad2)*%
X194000000Y-97000000D03*
%TD*%
%TO.P,R8,1*%
%TO.N,Net-(R7-Pad2)*%
X93190000Y-100000000D03*
%TO.P,R8,2*%
%TO.N,Net-(R8-Pad2)*%
X100810000Y-100000000D03*
%TD*%
%TO.P,R34,1*%
%TO.N,Net-(R33-Pad2)*%
X186380000Y-102000000D03*
%TO.P,R34,2*%
%TO.N,Net-(R34-Pad2)*%
X194000000Y-102000000D03*
%TD*%
D13*
%TO.P,SW4,1*%
%TO.N,Net-(R20-Pad1)*%
X180000000Y-95320000D03*
D12*
%TO.P,SW4,2*%
%TO.N,Net-(R33-Pad2)*%
X180000000Y-92780000D03*
%TO.P,SW4,3*%
%TO.N,Net-(R34-Pad2)*%
X180000000Y-90240000D03*
%TO.P,SW4,4*%
%TO.N,Net-(R35-Pad2)*%
X180000000Y-87700000D03*
%TO.P,SW4,5*%
%TO.N,Net-(R32-Pad2)*%
X180000000Y-85160000D03*
%TO.P,SW4,6*%
%TO.N,Net-(R31-Pad2)*%
X180000000Y-82620000D03*
%TO.P,SW4,7*%
%TO.N,Net-(R30-Pad2)*%
X180000000Y-80080000D03*
%TO.P,SW4,8*%
%TO.N,Net-(R29-Pad2)*%
X180000000Y-77540000D03*
%TO.P,SW4,9*%
%TO.N,Net-(R29-Pad1)*%
X180000000Y-75000000D03*
%TO.P,SW4,10*%
%TO.N,Net-(SW4-Pad10)*%
X172380000Y-75000000D03*
%TO.P,SW4,11*%
X172380000Y-77540000D03*
%TO.P,SW4,12*%
X172380000Y-80080000D03*
%TO.P,SW4,13*%
X172380000Y-82620000D03*
%TO.P,SW4,14*%
X172380000Y-85160000D03*
%TO.P,SW4,15*%
X172380000Y-87700000D03*
%TO.P,SW4,16*%
X172380000Y-90240000D03*
%TO.P,SW4,17*%
X172380000Y-92780000D03*
%TO.P,SW4,18*%
X172380000Y-95320000D03*
%TD*%
D14*
%TO.N,Net-(R1-Pad2)*%
X97000000Y-74000000D02*
X101000000Y-78000000D01*
X93380000Y-74000000D02*
X97000000Y-74000000D01*
X93380000Y-74000000D02*
X86000000Y-81380000D01*
X86000000Y-81380000D02*
X86000000Y-82000000D01*
%TO.N,Net-(R1-Pad1)*%
X119000000Y-105000000D02*
X119000000Y-101320000D01*
X119000000Y-105000000D02*
X114000000Y-110000000D01*
X101000000Y-72000000D02*
X98000000Y-69000000D01*
X78380000Y-74620000D02*
X78380000Y-82000000D01*
X78380000Y-82000000D02*
X78380000Y-102320000D01*
X105000000Y-75000000D02*
X104000000Y-74000000D01*
X114000000Y-110000000D02*
X108000000Y-110000000D01*
X105000000Y-107000000D02*
X105000000Y-75000000D01*
X125380000Y-110000000D02*
X124000000Y-110000000D01*
X98000000Y-69000000D02*
X84000000Y-69000000D01*
X101000000Y-74000000D02*
X101000000Y-72000000D01*
X124000000Y-110000000D02*
X119000000Y-105000000D01*
X108000000Y-110000000D02*
X105000000Y-107000000D01*
X104000000Y-74000000D02*
X101000000Y-74000000D01*
X84000000Y-69000000D02*
X78380000Y-74620000D01*
%TO.N,Net-(R2-Pad2)*%
X93380000Y-78000000D02*
X86840000Y-84540000D01*
X97000000Y-78000000D02*
X101000000Y-82000000D01*
X93380000Y-78000000D02*
X97000000Y-78000000D01*
X86840000Y-84540000D02*
X86000000Y-84540000D01*
%TO.N,Net-(R3-Pad2)*%
X93380000Y-82000000D02*
X91080000Y-82000000D01*
X97000000Y-82000000D02*
X101000000Y-86000000D01*
X93380000Y-82000000D02*
X97000000Y-82000000D01*
X91080000Y-82000000D02*
X86000000Y-87080000D01*
%TO.N,Net-(R10-Pad2)*%
X93380000Y-109000000D02*
X93000000Y-109000000D01*
X93380000Y-109000000D02*
X86700000Y-102320000D01*
X93380000Y-109000000D02*
X93380000Y-114000000D01*
X86700000Y-102320000D02*
X86000000Y-102320000D01*
%TO.N,Net-(R11-Pad2)*%
X119760000Y-81000000D02*
X125760000Y-75000000D01*
X128000000Y-75000000D02*
X133000000Y-70000000D01*
X119000000Y-81000000D02*
X119760000Y-81000000D01*
X125760000Y-75000000D02*
X128000000Y-75000000D01*
%TO.N,Net-(R12-Pad2)*%
X122220000Y-83540000D02*
X125760000Y-80000000D01*
X133380000Y-75000000D02*
X130760000Y-75000000D01*
X130760000Y-75000000D02*
X125760000Y-80000000D01*
X119000000Y-83540000D02*
X122220000Y-83540000D01*
%TO.N,Net-(R10-Pad1)*%
X123000000Y-114000000D02*
X132000000Y-123000000D01*
X101000000Y-114000000D02*
X123000000Y-114000000D01*
%TO.N,Net-(R11-Pad1)*%
X136000000Y-67000000D02*
X135500000Y-66500000D01*
X127500000Y-66500000D02*
X125380000Y-68620000D01*
X125380000Y-68620000D02*
X125380000Y-70000000D01*
X145680000Y-100320000D02*
X141000000Y-105000000D01*
X135500000Y-66500000D02*
X127500000Y-66500000D01*
X148000000Y-108000000D02*
X150000000Y-110000000D01*
X148000000Y-104000000D02*
X148000000Y-108000000D01*
X107000000Y-80000000D02*
X108000000Y-81000000D01*
X125380000Y-70000000D02*
X114000000Y-70000000D01*
X111380000Y-81000000D02*
X111380000Y-101320000D01*
X148000000Y-100320000D02*
X148000000Y-104000000D01*
X141000000Y-105000000D02*
X138000000Y-105000000D01*
X108000000Y-81000000D02*
X111380000Y-81000000D01*
X138000000Y-105000000D02*
X136000000Y-103000000D01*
X107000000Y-77000000D02*
X107000000Y-80000000D01*
X148000000Y-100320000D02*
X148000000Y-100000000D01*
X136000000Y-103000000D02*
X136000000Y-67000000D01*
X150000000Y-110000000D02*
X154000000Y-110000000D01*
X148000000Y-100320000D02*
X145680000Y-100320000D01*
X114000000Y-70000000D02*
X107000000Y-77000000D01*
%TO.N,Net-(R20-Pad1)*%
X176000000Y-70000000D02*
X172500000Y-66500000D01*
X150380000Y-70000000D02*
X140380000Y-80000000D01*
X172500000Y-66500000D02*
X155500000Y-66500000D01*
X140380000Y-80000000D02*
X140380000Y-100320000D01*
X186190000Y-107000000D02*
X180000000Y-100810000D01*
X154380000Y-67620000D02*
X154380000Y-70000000D01*
X180000000Y-95320000D02*
X176000000Y-91320000D01*
X180000000Y-100810000D02*
X180000000Y-95320000D01*
X176000000Y-91320000D02*
X176000000Y-70000000D01*
X154380000Y-70000000D02*
X150380000Y-70000000D01*
X155500000Y-66500000D02*
X154380000Y-67620000D01*
%TO.N,Net-(R29-Pad1)*%
X198250000Y-66250000D02*
X187500000Y-66250000D01*
X197156697Y-121843303D02*
X200000000Y-119000000D01*
X186380000Y-67370000D02*
X186380000Y-69000000D01*
X140776697Y-121843303D02*
X197156697Y-121843303D01*
X200000000Y-119000000D02*
X200000000Y-68000000D01*
X186000000Y-69000000D02*
X180000000Y-75000000D01*
X187500000Y-66250000D02*
X186380000Y-67370000D01*
X139620000Y-123000000D02*
X140776697Y-121843303D01*
X200000000Y-68000000D02*
X198250000Y-66250000D01*
X186380000Y-69000000D02*
X186000000Y-69000000D01*
%TO.N,Net-(R30-Pad2)*%
X194810000Y-75000000D02*
X194810000Y-80000000D01*
X194810000Y-80000000D02*
X193000000Y-80000000D01*
X193000000Y-80000000D02*
X191000000Y-78000000D01*
X182080000Y-78000000D02*
X180000000Y-80080000D01*
X191000000Y-78000000D02*
X182080000Y-78000000D01*
%TO.N,Net-(R4-Pad2)*%
X93380000Y-86000000D02*
X96000000Y-86000000D01*
X96000000Y-86000000D02*
X101000000Y-91000000D01*
X93380000Y-86000000D02*
X92000000Y-86000000D01*
X92000000Y-86000000D02*
X88380000Y-89620000D01*
X88380000Y-89620000D02*
X86000000Y-89620000D01*
%TO.N,Net-(R5-Pad2)*%
X87160000Y-91000000D02*
X86000000Y-92160000D01*
X95810000Y-91000000D02*
X100810000Y-96000000D01*
X93380000Y-91000000D02*
X95810000Y-91000000D01*
X93380000Y-91000000D02*
X87160000Y-91000000D01*
%TO.N,Net-(R6-Pad2)*%
X90220000Y-104000000D02*
X86000000Y-99780000D01*
X96000000Y-104000000D02*
X101000000Y-109000000D01*
X93190000Y-104000000D02*
X96000000Y-104000000D01*
X93190000Y-104000000D02*
X90220000Y-104000000D01*
%TO.N,Net-(R7-Pad2)*%
X93190000Y-100000000D02*
X88760000Y-100000000D01*
X96810000Y-100000000D02*
X100810000Y-104000000D01*
X88760000Y-100000000D02*
X86000000Y-97240000D01*
X93190000Y-100000000D02*
X96810000Y-100000000D01*
%TO.N,Net-(R8-Pad2)*%
X96810000Y-96000000D02*
X100810000Y-100000000D01*
X93190000Y-96000000D02*
X96810000Y-96000000D01*
X93190000Y-96000000D02*
X87300000Y-96000000D01*
X87300000Y-96000000D02*
X86000000Y-94700000D01*
%TO.N,Net-(R13-Pad2)*%
X130213333Y-80000000D02*
X125380000Y-84833333D01*
X119000000Y-86080000D02*
X124133333Y-86080000D01*
X133380000Y-80000000D02*
X130213333Y-80000000D01*
X124133333Y-86080000D02*
X125380000Y-84833333D01*
%TO.N,Net-(R14-Pad2)*%
X125570000Y-90000000D02*
X127833333Y-90000000D01*
X124190000Y-88620000D02*
X125570000Y-90000000D01*
X127833333Y-90000000D02*
X133000000Y-84833333D01*
X119000000Y-88620000D02*
X124190000Y-88620000D01*
%TO.N,Net-(R15-Pad2)*%
X130000000Y-92000000D02*
X132000000Y-90000000D01*
X119000000Y-91160000D02*
X123160000Y-91160000D01*
X123160000Y-91160000D02*
X124000000Y-92000000D01*
X132000000Y-90000000D02*
X133190000Y-90000000D01*
X124000000Y-92000000D02*
X130000000Y-92000000D01*
%TO.N,Net-(R16-Pad2)*%
X128000000Y-105000000D02*
X133000000Y-110000000D01*
X119000000Y-98780000D02*
X125000000Y-104780000D01*
X125000000Y-105000000D02*
X128000000Y-105000000D01*
X125000000Y-104780000D02*
X125000000Y-105000000D01*
%TO.N,Net-(R17-Pad2)*%
X127620000Y-100000000D02*
X132620000Y-105000000D01*
X125000000Y-100000000D02*
X127620000Y-100000000D01*
X125000000Y-100000000D02*
X122760000Y-100000000D01*
X122760000Y-100000000D02*
X119000000Y-96240000D01*
%TO.N,Net-(R18-Pad2)*%
X125190000Y-95000000D02*
X127620000Y-95000000D01*
X119000000Y-93700000D02*
X123890000Y-93700000D01*
X123890000Y-93700000D02*
X125190000Y-95000000D01*
X127620000Y-95000000D02*
X132620000Y-100000000D01*
%TO.N,Net-(R20-Pad2)*%
X155000000Y-75000000D02*
X160000000Y-70000000D01*
X160000000Y-70000000D02*
X162000000Y-70000000D01*
X148000000Y-80000000D02*
X153000000Y-75000000D01*
X154570000Y-75000000D02*
X155000000Y-75000000D01*
X153000000Y-75000000D02*
X154570000Y-75000000D01*
%TO.N,Net-(R21-Pad2)*%
X154190000Y-80000000D02*
X157190000Y-80000000D01*
X157190000Y-80000000D02*
X162190000Y-75000000D01*
X150540000Y-80000000D02*
X148000000Y-82540000D01*
X154190000Y-80000000D02*
X150540000Y-80000000D01*
%TO.N,Net-(R22-Pad2)*%
X154300000Y-85080000D02*
X154380000Y-85000000D01*
X156810000Y-85000000D02*
X161810000Y-80000000D01*
X154380000Y-85000000D02*
X156810000Y-85000000D01*
X148000000Y-85080000D02*
X154300000Y-85080000D01*
%TO.N,Net-(R23-Pad2)*%
X157000000Y-90000000D02*
X162000000Y-85000000D01*
X148000000Y-87620000D02*
X152000000Y-87620000D01*
X154380000Y-90000000D02*
X157000000Y-90000000D01*
X152000000Y-87620000D02*
X154380000Y-90000000D01*
%TO.N,Net-(R24-Pad2)*%
X160000000Y-92000000D02*
X162000000Y-90000000D01*
X162000000Y-94810000D02*
X161810000Y-95000000D01*
X148000000Y-90160000D02*
X150160000Y-90160000D01*
X152000000Y-92000000D02*
X160000000Y-92000000D01*
X150160000Y-90160000D02*
X152000000Y-92000000D01*
X162000000Y-90000000D02*
X162000000Y-94810000D01*
%TO.N,Net-(R25-Pad2)*%
X159000000Y-110000000D02*
X154000000Y-105000000D01*
X148000000Y-97780000D02*
X154000000Y-103780000D01*
X161620000Y-110000000D02*
X159000000Y-110000000D01*
X154000000Y-103780000D02*
X154000000Y-105000000D01*
%TO.N,Net-(R26-Pad2)*%
X154000000Y-100000000D02*
X156620000Y-100000000D01*
X149240000Y-95240000D02*
X154000000Y-100000000D01*
X148000000Y-95240000D02*
X149240000Y-95240000D01*
X156620000Y-100000000D02*
X161620000Y-105000000D01*
%TO.N,Net-(R27-Pad2)*%
X149700000Y-92700000D02*
X152000000Y-95000000D01*
X152000000Y-95000000D02*
X154190000Y-95000000D01*
X156620000Y-95000000D02*
X161620000Y-100000000D01*
X148000000Y-92700000D02*
X149700000Y-92700000D01*
X154190000Y-95000000D02*
X156620000Y-95000000D01*
%TO.N,Net-(R29-Pad2)*%
X187000000Y-74000000D02*
X192000000Y-69000000D01*
X182540000Y-75000000D02*
X180000000Y-77540000D01*
X187190000Y-75000000D02*
X182540000Y-75000000D01*
X192000000Y-69000000D02*
X194000000Y-69000000D01*
X187190000Y-74190000D02*
X187000000Y-74000000D01*
X187190000Y-75000000D02*
X187190000Y-74190000D01*
%TO.N,Net-(R31-Pad2)*%
X183380000Y-82620000D02*
X180000000Y-82620000D01*
X187190000Y-80000000D02*
X188000000Y-80000000D01*
X187190000Y-80000000D02*
X186000000Y-80000000D01*
X186000000Y-80000000D02*
X183380000Y-82620000D01*
X188000000Y-80000000D02*
X194000000Y-86000000D01*
%TO.N,Net-(R32-Pad2)*%
X186380000Y-86000000D02*
X180840000Y-86000000D01*
X194000000Y-91000000D02*
X191380000Y-91000000D01*
X180840000Y-86000000D02*
X180000000Y-85160000D01*
X191380000Y-91000000D02*
X186380000Y-86000000D01*
%TO.N,Net-(R33-Pad2)*%
X193810000Y-107000000D02*
X191380000Y-107000000D01*
X186380000Y-99160000D02*
X180000000Y-92780000D01*
X191380000Y-107000000D02*
X186380000Y-102000000D01*
X186380000Y-102000000D02*
X186380000Y-99160000D01*
%TO.N,Net-(R34-Pad2)*%
X186380000Y-97000000D02*
X189000000Y-97000000D01*
X189000000Y-97000000D02*
X194000000Y-102000000D01*
X186380000Y-96620000D02*
X180000000Y-90240000D01*
X186380000Y-97000000D02*
X186380000Y-96620000D01*
%TO.N,Net-(R35-Pad2)*%
X186380000Y-91000000D02*
X183300000Y-91000000D01*
X192380000Y-97000000D02*
X186380000Y-91000000D01*
X194000000Y-97000000D02*
X192380000Y-97000000D01*
X183300000Y-91000000D02*
X180000000Y-87700000D01*
%TO.N,Net-(SW4-Pad10)*%
X172380000Y-75000000D02*
X172380000Y-95320000D01*
%TO.N,Net-(R15-Pad2)*%
X132810000Y-95000000D02*
X132810000Y-90380000D01*
X132810000Y-90380000D02*
X133190000Y-90000000D01*
%TD*%
M02*
